<svg xmlns="http://www.w3.org/2000/svg" xmlns:xlink="http://www.w3.org/1999/xlink" id="Layer_1" width="6.463" height="5.621" x="0" y="0" enable-background="new 0 0 6.463 5.621" version="1.1" viewBox="0 0 6.463 5.621" xml:space="preserve"><rect width="2.579" height="2.168" x="1.534" y="2.448" fill="#231F20" enable-background="new" opacity=".7"/><path fill="none" stroke="#231F20" stroke-miterlimit="10" stroke-width=".635" d="M2.03,2.448c0-0.149,0-0.283,0-0.328c0-0.462,0.355-0.836,0.792-0.836c0.438,0,0.794,0.374,0.794,0.836c0,0.051,0,0.184,0,0.328" enable-background="new" opacity=".7"/><path fill="none" stroke="#FFF" stroke-miterlimit="10" stroke-width=".095" d="M2.251,2.448c0-0.104,0-0.199,0-0.231c0-0.424,0.246-0.683,0.575-0.696c0,0,0.152-0.024,0.295,0.087" enable-background="new" opacity=".8"/><polyline fill="none" stroke="#FFF" stroke-miterlimit="10" stroke-width=".097" points="1.534 4.555 4.061 4.555 4.061 2.448" enable-background="new" opacity=".8"/><path fill="none" stroke="#FFF" stroke-miterlimit="10" stroke-width=".097" d="M3.895,2.449V1.981c0,0-0.041-0.234-0.088-0.328" enable-background="new" opacity=".8"/></svg>