<svg xmlns="http://www.w3.org/2000/svg" xmlns:xlink="http://www.w3.org/1999/xlink" id="Layer_1" width="10.531" height="10.532" x="0" y="0" baseProfile="tiny" version="1.2" viewBox="0 0 10.531 10.532" xml:space="preserve"><polygon fill="#C90000" points="3.085 10.532 0 7.447 0 3.085 3.085 0 7.447 0 10.531 3.085 10.531 7.447 7.447 10.532"/><g><g><path fill="#FFF" d="M7.014,8.075l-4.558-4.56c-0.294-0.292-0.292-0.767,0-1.059l0,0c0.292-0.294,0.767-0.294,1.061,0l0,0 l4.557,4.559c0.294,0.292,0.292,0.768,0,1.06l0,0c-0.146,0.146-0.337,0.22-0.529,0.22l0,0C7.353,8.294,7.159,8.221,7.014,8.075 L7.014,8.075z"/></g><g><path fill="#FFF" d="M2.456,8.075c-0.292-0.292-0.294-0.768,0-1.06l0,0l4.558-4.559c0.292-0.294,0.769-0.294,1.061,0l0,0 c0.292,0.292,0.294,0.767,0,1.059l0,0l-4.557,4.56c-0.147,0.146-0.34,0.22-0.532,0.22l0,0C2.793,8.294,2.602,8.221,2.456,8.075 L2.456,8.075z"/></g></g></svg>