<svg xmlns="http://www.w3.org/2000/svg" xmlns:xlink="http://www.w3.org/1999/xlink" id="Ebene_1" width="32.055" height="32.055" x="0" y="0" enable-background="new 0 0 32.055 32.055" version="1.1" viewBox="0 0 32.055 32.055" xml:space="preserve"><desc>Hole SVG</desc><path fill="#FFF" stroke="#111" stroke-width="1.944" d="M0,0v32.055h32.055V0H0z M16.027,24.463	c-4.655,0-8.435-3.771-8.435-8.437c0-4.654,3.774-8.436,8.435-8.436c4.665,0.001,8.436,3.78,8.436,8.436	C24.462,20.684,20.691,24.463,16.027,24.463z"/><path id="path3157_2_" fill="none" stroke="#fdde68" stroke-width="3.5" d="M24.462,16.028c0,4.656-3.771,8.437-8.436,8.437	c-4.655,0-8.435-3.771-8.435-8.437c0-4.654,3.774-8.436,8.435-8.436C20.691,7.593,24.462,11.372,24.462,16.028z"/></svg>