<svg xmlns="http://www.w3.org/2000/svg" xmlns:svg="http://www.w3.org/2000/svg" id="svg2" width="57.6" height="57.6" version="1.1" viewBox="0 0 600 600"><metadata id="metadata101"/><path id="boardoutline" fill="#deb675" fill-opacity="1" stroke="none" stroke-width="0" d="M0,0L600,0 600,600 0,600z M82.5,100a17.5,17.5 0 1 0 35,0 17.5,17.5 0 1 0 -35,0z M182.5,100a17.5,17.5 0 1 0 35,0 17.5,17.5 0 1 0 -35,0z M282.5,100a17.5,17.5 0 1 0 35,0 17.5,17.5 0 1 0 -35,0z M382.5,100a17.5,17.5 0 1 0 35,0 17.5,17.5 0 1 0 -35,0z M482.5,100a17.5,17.5 0 1 0 35,0 17.5,17.5 0 1 0 -35,0z M82.5,200a17.5,17.5 0 1 0 35,0 17.5,17.5 0 1 0 -35,0z M182.5,200a17.5,17.5 0 1 0 35,0 17.5,17.5 0 1 0 -35,0z M282.5,200a17.5,17.5 0 1 0 35,0 17.5,17.5 0 1 0 -35,0z M382.5,200a17.5,17.5 0 1 0 35,0 17.5,17.5 0 1 0 -35,0z M482.5,200a17.5,17.5 0 1 0 35,0 17.5,17.5 0 1 0 -35,0z M82.5,300a17.5,17.5 0 1 0 35,0 17.5,17.5 0 1 0 -35,0z M182.5,300a17.5,17.5 0 1 0 35,0 17.5,17.5 0 1 0 -35,0z M282.5,300a17.5,17.5 0 1 0 35,0 17.5,17.5 0 1 0 -35,0z M382.5,300a17.5,17.5 0 1 0 35,0 17.5,17.5 0 1 0 -35,0z M482.5,300a17.5,17.5 0 1 0 35,0 17.5,17.5 0 1 0 -35,0z M82.5,400a17.5,17.5 0 1 0 35,0 17.5,17.5 0 1 0 -35,0z M182.5,400a17.5,17.5 0 1 0 35,0 17.5,17.5 0 1 0 -35,0z M282.5,400a17.5,17.5 0 1 0 35,0 17.5,17.5 0 1 0 -35,0z M382.5,400a17.5,17.5 0 1 0 35,0 17.5,17.5 0 1 0 -35,0z M482.5,400a17.5,17.5 0 1 0 35,0 17.5,17.5 0 1 0 -35,0z M82.5,500a17.5,17.5 0 1 0 35,0 17.5,17.5 0 1 0 -35,0z M182.5,500a17.5,17.5 0 1 0 35,0 17.5,17.5 0 1 0 -35,0z M282.5,500a17.5,17.5 0 1 0 35,0 17.5,17.5 0 1 0 -35,0z M382.5,500a17.5,17.5 0 1 0 35,0 17.5,17.5 0 1 0 -35,0z M482.5,500a17.5,17.5 0 1 0 35,0 17.5,17.5 0 1 0 -35,0z"/><path id="path5" fill="none" stroke="#deb675" stroke-opacity="1" stroke-width="8" d="M4,4L592,4 592,592 4,592z"/><g id="g3868"><circle style="stroke:#a67e3b;stroke-opacity:1" id="circle7" cx="100" cy="100" r="27.5" fill="none" stroke="#845c19" stroke-width="20" connectorname="0"/><circle style="stroke:#a67e3b;stroke-opacity:1" id="circle9" cx="200" cy="100" r="27.5" fill="none" stroke="#845c19" stroke-width="20" connectorname="1"/><circle style="stroke:#a67e3b;stroke-opacity:1" id="circle11" cx="300" cy="100" r="27.5" fill="none" stroke="#845c19" stroke-width="20" connectorname="2"/><circle style="stroke:#a67e3b;stroke-opacity:1" id="circle13" cx="400" cy="100" r="27.5" fill="none" stroke="#845c19" stroke-width="20" connectorname="3"/><circle style="stroke:#a67e3b;stroke-opacity:1" id="circle15" cx="500" cy="100" r="27.5" fill="none" stroke="#845c19" stroke-width="20" connectorname="4"/><circle style="stroke:#a67e3b;stroke-opacity:1" id="circle17" cx="100" cy="200" r="27.5" fill="none" stroke="#845c19" stroke-width="20" connectorname=".1"/><circle style="stroke:#a67e3b;stroke-opacity:1" id="circle19" cx="200" cy="200" r="27.5" fill="none" stroke="#845c19" stroke-width="20" connectorname="1.1"/><circle style="stroke:#a67e3b;stroke-opacity:1" id="circle21" cx="300" cy="200" r="27.5" fill="none" stroke="#845c19" stroke-width="20" connectorname="2.1"/><circle style="stroke:#a67e3b;stroke-opacity:1" id="circle23" cx="400" cy="200" r="27.5" fill="none" stroke="#845c19" stroke-width="20" connectorname="3.1"/><circle style="stroke:#a67e3b;stroke-opacity:1" id="circle25" cx="500" cy="200" r="27.5" fill="none" stroke="#845c19" stroke-width="20" connectorname="4.1"/><circle style="stroke:#a67e3b;stroke-opacity:1" id="circle27" cx="100" cy="300" r="27.5" fill="none" stroke="#845c19" stroke-width="20" connectorname=".2"/><circle style="stroke:#a67e3b;stroke-opacity:1" id="circle29" cx="200" cy="300" r="27.5" fill="none" stroke="#845c19" stroke-width="20" connectorname="1.2"/><circle style="stroke:#a67e3b;stroke-opacity:1" id="circle31" cx="300" cy="300" r="27.5" fill="none" stroke="#845c19" stroke-width="20" connectorname="2.2"/><circle style="stroke:#a67e3b;stroke-opacity:1" id="circle33" cx="400" cy="300" r="27.5" fill="none" stroke="#845c19" stroke-width="20" connectorname="3.2"/><circle style="stroke:#a67e3b;stroke-opacity:1" id="circle35" cx="500" cy="300" r="27.5" fill="none" stroke="#845c19" stroke-width="20" connectorname="4.2"/><circle style="stroke:#a67e3b;stroke-opacity:1" id="circle37" cx="100" cy="400" r="27.5" fill="none" stroke="#845c19" stroke-width="20" connectorname=".3"/><circle style="stroke:#a67e3b;stroke-opacity:1" id="circle39" cx="200" cy="400" r="27.5" fill="none" stroke="#845c19" stroke-width="20" connectorname="1.3"/><circle style="stroke:#a67e3b;stroke-opacity:1" id="circle41" cx="300" cy="400" r="27.5" fill="none" stroke="#845c19" stroke-width="20" connectorname="2.3"/><circle style="stroke:#a67e3b;stroke-opacity:1" id="circle43" cx="400" cy="400" r="27.5" fill="none" stroke="#845c19" stroke-width="20" connectorname="3.3"/><circle style="stroke:#a67e3b;stroke-opacity:1" id="circle45" cx="500" cy="400" r="27.5" fill="none" stroke="#845c19" stroke-width="20" connectorname="4.3"/><circle style="stroke:#a67e3b;stroke-opacity:1" id="circle47" cx="100" cy="500" r="27.5" fill="none" stroke="#845c19" stroke-width="20" connectorname=".4"/><circle style="stroke:#a67e3b;stroke-opacity:1" id="circle49" cx="200" cy="500" r="27.5" fill="none" stroke="#845c19" stroke-width="20" connectorname="1.4"/><circle style="stroke:#a67e3b;stroke-opacity:1" id="circle51" cx="300" cy="500" r="27.5" fill="none" stroke="#845c19" stroke-width="20" connectorname="2.4"/><circle style="stroke:#a67e3b;stroke-opacity:1" id="circle53" cx="400" cy="500" r="27.5" fill="none" stroke="#845c19" stroke-width="20" connectorname="3.4"/><circle style="stroke:#a67e3b;stroke-opacity:1" id="circle55" cx="500" cy="500" r="27.5" fill="none" stroke="#845c19" stroke-width="20" connectorname="4.4"/></g><g id="g3846" transform="translate(0,-22.222221)"><path id="path57" d="m 100,85.722221 100,0 0,74.999999 -100,0 z m 0,74.999999 a 37.5,37.5 0 0 0 0,-74.999999 z M 200,85.722221 a 37.5,37.5 0 1 0 0,74.999999 z" style="fill:#a7803d;fill-opacity:1;stroke:none"/><path id="path59" d="m 200,85.722221 100,0 0,74.999999 -100,0 z m 0,74.999999 a 37.5,37.5 0 0 0 0,-74.999999 z M 300,85.722221 a 37.5,37.5 0 1 0 0,74.999999 z" style="fill:#a7803d;fill-opacity:1;stroke:none"/><path id="path61" d="m 300,85.722221 100,0 0,74.999999 -100,0 z m 0,74.999999 a 37.5,37.5 0 0 0 0,-74.999999 z M 400,85.722221 a 37.5,37.5 0 1 0 0,74.999999 z" style="fill:#a7803d;fill-opacity:1;stroke:none"/><path id="path63" d="m 400,85.722221 100,0 0,74.999999 -100,0 z m 0,74.999999 a 37.5,37.5 0 0 0 0,-74.999999 z M 500,85.722221 a 37.5,37.5 0 1 0 0,74.999999 z" style="fill:#a7803d;fill-opacity:1;stroke:none"/><path id="path65" d="m 100,185.72222 100,0 0,75 -100,0 z m 0,75 a 37.5,37.5 0 0 0 0,-75 z m 100,-75 a 37.5,37.5 0 1 0 0,75 z" style="fill:#a7803d;fill-opacity:1;stroke:none"/><path id="path67" d="m 200,185.72222 100,0 0,75 -100,0 z m 0,75 a 37.5,37.5 0 0 0 0,-75 z m 100,-75 a 37.5,37.5 0 1 0 0,75 z" style="fill:#a7803d;fill-opacity:1;stroke:none"/><path id="path69" d="m 300,185.72222 100,0 0,75 -100,0 z m 0,75 a 37.5,37.5 0 0 0 0,-75 z m 100,-75 a 37.5,37.5 0 1 0 0,75 z" style="fill:#a7803d;fill-opacity:1;stroke:none"/><path id="path71" d="m 400,185.72222 100,0 0,75 -100,0 z m 0,75 a 37.5,37.5 0 0 0 0,-75 z m 100,-75 a 37.5,37.5 0 1 0 0,75 z" style="fill:#a7803d;fill-opacity:1;stroke:none"/><path id="path73" d="m 100,285.72222 100,0 0,75 -100,0 z m 0,75 a 37.5,37.5 0 0 0 0,-75 z m 100,-75 a 37.5,37.5 0 1 0 0,75 z" style="fill:#a7803d;fill-opacity:1;stroke:none"/><path id="path75" d="m 200,285.72222 100,0 0,75 -100,0 z m 0,75 a 37.5,37.5 0 0 0 0,-75 z m 100,-75 a 37.5,37.5 0 1 0 0,75 z" style="fill:#a7803d;fill-opacity:1;stroke:none"/><path id="path77" d="m 300,285.72222 100,0 0,75 -100,0 z m 0,75 a 37.5,37.5 0 0 0 0,-75 z m 100,-75 a 37.5,37.5 0 1 0 0,75 z" style="fill:#a7803d;fill-opacity:1;stroke:none"/><path id="path79" d="m 400,285.72222 100,0 0,75 -100,0 z m 0,75 a 37.5,37.5 0 0 0 0,-75 z m 100,-75 a 37.5,37.5 0 1 0 0,75 z" style="fill:#a7803d;fill-opacity:1;stroke:none"/><path id="path81" d="m 100,385.72222 100,0 0,75 -100,0 z m 0,75 a 37.5,37.5 0 0 0 0,-75 z m 100,-75 a 37.5,37.5 0 1 0 0,75 z" style="fill:#a7803d;fill-opacity:1;stroke:none"/><path id="path83" d="m 200,385.72222 100,0 0,75 -100,0 z m 0,75 a 37.5,37.5 0 0 0 0,-75 z m 100,-75 a 37.5,37.5 0 1 0 0,75 z" style="fill:#a7803d;fill-opacity:1;stroke:none"/><path id="path85" d="m 300,385.72222 100,0 0,75 -100,0 z m 0,75 a 37.5,37.5 0 0 0 0,-75 z m 100,-75 a 37.5,37.5 0 1 0 0,75 z" style="fill:#a7803d;fill-opacity:1;stroke:none"/><path id="path87" d="m 400,385.72222 100,0 0,75 -100,0 z m 0,75 a 37.5,37.5 0 0 0 0,-75 z m 100,-75 a 37.5,37.5 0 1 0 0,75 z" style="fill:#a7803d;fill-opacity:1;stroke:none"/><path id="path89" d="m 100,485.72222 100,0 0,75 -100,0 z m 0,75 a 37.5,37.5 0 0 0 0,-75 z m 100,-75 a 37.5,37.5 0 1 0 0,75 z" style="fill:#a7803d;fill-opacity:1;stroke:none"/><path id="path91" d="m 200,485.72222 100,0 0,75 -100,0 z m 0,75 a 37.5,37.5 0 0 0 0,-75 z m 100,-75 a 37.5,37.5 0 1 0 0,75 z" style="fill:#a7803d;fill-opacity:1;stroke:none"/><path id="path93" d="m 300,485.72222 100,0 0,75 -100,0 z m 0,75 a 37.5,37.5 0 0 0 0,-75 z m 100,-75 a 37.5,37.5 0 1 0 0,75 z" style="fill:#a7803d;fill-opacity:1;stroke:none"/><path id="path95" d="m 400,485.72222 100,0 0,75 -100,0 z m 0,75 a 37.5,37.5 0 0 0 0,-75 z m 100,-75 a 37.5,37.5 0 1 0 0,75 z" style="fill:#a7803d;fill-opacity:1;stroke:none"/></g></svg>