<svg xmlns="http://www.w3.org/2000/svg" xmlns:svg="http://www.w3.org/2000/svg" id="svg2" width="57.6" height="57.6" version="1.1" viewBox="0 0 600 600"><metadata id="metadata61"/><path id="boardoutline" fill="#deb675" fill-opacity="1" stroke="none" stroke-width="0" d="M0,0L600,0 600,600 0,600z M82.5,100a17.5,17.5 0 1 0 35,0 17.5,17.5 0 1 0 -35,0z M182.5,100a17.5,17.5 0 1 0 35,0 17.5,17.5 0 1 0 -35,0z M282.5,100a17.5,17.5 0 1 0 35,0 17.5,17.5 0 1 0 -35,0z M382.5,100a17.5,17.5 0 1 0 35,0 17.5,17.5 0 1 0 -35,0z M482.5,100a17.5,17.5 0 1 0 35,0 17.5,17.5 0 1 0 -35,0z M82.5,200a17.5,17.5 0 1 0 35,0 17.5,17.5 0 1 0 -35,0z M182.5,200a17.5,17.5 0 1 0 35,0 17.5,17.5 0 1 0 -35,0z M282.5,200a17.5,17.5 0 1 0 35,0 17.5,17.5 0 1 0 -35,0z M382.5,200a17.5,17.5 0 1 0 35,0 17.5,17.5 0 1 0 -35,0z M482.5,200a17.5,17.5 0 1 0 35,0 17.5,17.5 0 1 0 -35,0z M82.5,300a17.5,17.5 0 1 0 35,0 17.5,17.5 0 1 0 -35,0z M182.5,300a17.5,17.5 0 1 0 35,0 17.5,17.5 0 1 0 -35,0z M282.5,300a17.5,17.5 0 1 0 35,0 17.5,17.5 0 1 0 -35,0z M382.5,300a17.5,17.5 0 1 0 35,0 17.5,17.5 0 1 0 -35,0z M482.5,300a17.5,17.5 0 1 0 35,0 17.5,17.5 0 1 0 -35,0z M82.5,400a17.5,17.5 0 1 0 35,0 17.5,17.5 0 1 0 -35,0z M182.5,400a17.5,17.5 0 1 0 35,0 17.5,17.5 0 1 0 -35,0z M282.5,400a17.5,17.5 0 1 0 35,0 17.5,17.5 0 1 0 -35,0z M382.5,400a17.5,17.5 0 1 0 35,0 17.5,17.5 0 1 0 -35,0z M482.5,400a17.5,17.5 0 1 0 35,0 17.5,17.5 0 1 0 -35,0z M82.5,500a17.5,17.5 0 1 0 35,0 17.5,17.5 0 1 0 -35,0z M182.5,500a17.5,17.5 0 1 0 35,0 17.5,17.5 0 1 0 -35,0z M282.5,500a17.5,17.5 0 1 0 35,0 17.5,17.5 0 1 0 -35,0z M382.5,500a17.5,17.5 0 1 0 35,0 17.5,17.5 0 1 0 -35,0z M482.5,500a17.5,17.5 0 1 0 35,0 17.5,17.5 0 1 0 -35,0z"/><path id="path5" fill="none" stroke="#deb675" stroke-opacity="1" stroke-width="8" d="M4,4L592,4 592,592 4,592z"/><circle id="circle7" cx="100" cy="100" r="27.5" fill="none" stroke="#c49c59" stroke-width="20" connectorname="0" style="stroke:#a57e3b;stroke-opacity:1"/><circle id="circle9" cx="200" cy="100" r="27.5" fill="none" stroke="#c49c59" stroke-width="20" connectorname="1" style="stroke:#a57e3b;stroke-opacity:1"/><circle id="circle11" cx="300" cy="100" r="27.5" fill="none" stroke="#c49c59" stroke-width="20" connectorname="2" style="stroke:#a57e3b;stroke-opacity:1"/><circle id="circle13" cx="400" cy="100" r="27.5" fill="none" stroke="#c49c59" stroke-width="20" connectorname="3" style="stroke:#a57e3b;stroke-opacity:1"/><circle id="circle15" cx="500" cy="100" r="27.5" fill="none" stroke="#c49c59" stroke-width="20" connectorname="4" style="stroke:#a57e3b;stroke-opacity:1"/><circle id="circle17" cx="100" cy="200" r="27.5" fill="none" stroke="#c49c59" stroke-width="20" connectorname=".1" style="stroke:#a57e3b;stroke-opacity:1"/><circle id="circle19" cx="200" cy="200" r="27.5" fill="none" stroke="#c49c59" stroke-width="20" connectorname="1.1" style="stroke:#a57e3b;stroke-opacity:1"/><circle id="circle21" cx="300" cy="200" r="27.5" fill="none" stroke="#c49c59" stroke-width="20" connectorname="2.1" style="stroke:#a57e3b;stroke-opacity:1"/><circle id="circle23" cx="400" cy="200" r="27.5" fill="none" stroke="#c49c59" stroke-width="20" connectorname="3.1" style="stroke:#a57e3b;stroke-opacity:1"/><circle id="circle25" cx="500" cy="200" r="27.5" fill="none" stroke="#c49c59" stroke-width="20" connectorname="4.1" style="stroke:#a57e3b;stroke-opacity:1"/><circle id="circle27" cx="100" cy="300" r="27.5" fill="none" stroke="#c49c59" stroke-width="20" connectorname=".2" style="stroke:#a57e3b;stroke-opacity:1"/><circle id="circle29" cx="200" cy="300" r="27.5" fill="none" stroke="#c49c59" stroke-width="20" connectorname="1.2" style="stroke:#a57e3b;stroke-opacity:1"/><circle id="circle31" cx="300" cy="300" r="27.5" fill="none" stroke="#c49c59" stroke-width="20" connectorname="2.2" style="stroke:#a57e3b;stroke-opacity:1"/><circle id="circle33" cx="400" cy="300" r="27.5" fill="none" stroke="#c49c59" stroke-width="20" connectorname="3.2" style="stroke:#a57e3b;stroke-opacity:1"/><circle id="circle35" cx="500" cy="300" r="27.5" fill="none" stroke="#c49c59" stroke-width="20" connectorname="4.2" style="stroke:#a57e3b;stroke-opacity:1"/><circle id="circle37" cx="100" cy="400" r="27.5" fill="none" stroke="#c49c59" stroke-width="20" connectorname=".3" style="stroke:#a57e3b;stroke-opacity:1"/><circle id="circle39" cx="200" cy="400" r="27.5" fill="none" stroke="#c49c59" stroke-width="20" connectorname="1.3" style="stroke:#a57e3b;stroke-opacity:1"/><circle id="circle41" cx="300" cy="400" r="27.5" fill="none" stroke="#c49c59" stroke-width="20" connectorname="2.3" style="stroke:#a57e3b;stroke-opacity:1"/><circle id="circle43" cx="400" cy="400" r="27.5" fill="none" stroke="#c49c59" stroke-width="20" connectorname="3.3" style="stroke:#a57e3b;stroke-opacity:1"/><circle id="circle45" cx="500" cy="400" r="27.5" fill="none" stroke="#c49c59" stroke-width="20" connectorname="4.3" style="stroke:#a57e3b;stroke-opacity:1"/><circle id="circle47" cx="100" cy="500" r="27.5" fill="none" stroke="#c49c59" stroke-width="20" connectorname=".4" style="stroke:#a57e3b;stroke-opacity:1"/><circle id="circle49" cx="200" cy="500" r="27.5" fill="none" stroke="#c49c59" stroke-width="20" connectorname="1.4" style="stroke:#a57e3b;stroke-opacity:1"/><circle id="circle51" cx="300" cy="500" r="27.5" fill="none" stroke="#c49c59" stroke-width="20" connectorname="2.4" style="stroke:#a57e3b;stroke-opacity:1"/><circle id="circle53" cx="400" cy="500" r="27.5" fill="none" stroke="#c49c59" stroke-width="20" connectorname="3.4" style="stroke:#a57e3b;stroke-opacity:1"/><circle id="circle55" cx="500" cy="500" r="27.5" fill="none" stroke="#c49c59" stroke-width="20" connectorname="4.4" style="stroke:#a57e3b;stroke-opacity:1"/></svg>