<svg xmlns="http://www.w3.org/2000/svg" xmlns:xlink="http://www.w3.org/1999/xlink" id="Ebene_1" width="32.003" height="32.003" x="0" y="0" enable-background="new 0 0 32.003 32.003" version="1.1" viewBox="0 0 32.003 32.003" xml:space="preserve"><rect id="rect2383_2_" width="32.055" height="32.055" x="-.026" y="-.026" fill="#FFF" stroke="#111" stroke-width="1.944"/><desc>Jumper SVG</desc><polyline fill="none" stroke="#f2c600" stroke-width="2" points="7.613 31.048 7.613 24.332 26.07 5.874 31.064 5.874"/><path id="path3157_1_" fill="none" stroke="#fdde68" stroke-width="2.764" d="M11.051,6.753c0,1.898-1.538,3.438-3.438,3.438	c-1.897,0-3.438-1.537-3.438-3.438c0-1.898,1.54-3.438,3.438-3.438C9.513,3.314,11.051,4.854,11.051,6.753z"/><path id="path3157_2_" fill="none" stroke="#fdde68" stroke-width="2.764" d="M28.085,25.175c0,1.898-1.537,3.439-3.438,3.439	c-1.897,0-3.438-1.537-3.438-3.439c0-1.897,1.539-3.438,3.438-3.438C26.548,21.738,28.085,23.278,28.085,25.175z"/><line x1="24.648" x2="22" y1="25.175" y2="22.494" fill="none" stroke="#999" stroke-linecap="round" stroke-linejoin="round" stroke-width="3.003"/><path fill="none" stroke="#999" stroke-linecap="round" stroke-linejoin="round" stroke-width="3.003" d="M10.032,9.395	c-0.667-1.155-2.43-2.642-2.43-2.642"/><g><path fill="none" stroke="#1B5BB3" stroke-linejoin="round" stroke-width="6.007" d="M10.017,9.452 c5.818,10.543,6.891,7.163,11.969,13.098"/><path fill="none" stroke="#418DD9" stroke-linejoin="round" stroke-width="3" d="M10.017,9.452 c5.818,10.543,6.891,7.163,11.969,13.098"/></g></svg>