<svg xmlns="http://www.w3.org/2000/svg" xmlns:svg="http://www.w3.org/2000/svg" xmlns:xlink="http://www.w3.org/1999/xlink" id="svg2" width="32.074" height="32" x="0" y="0" enable-background="new 0 0 32.074 32" version="1.1" viewBox="0 0 32.074 32" xml:space="preserve"><g id="icon" transform="translate(-150.09177,-28.043049)"><line id="line10" x1="153.973" x2="153.973" y1="35.54" y2="20.41" fill="none" stroke="#000" stroke-width="1"/><line id="line12" x1="153.973" x2="153.973" y1="53.644" y2="68.774" fill="none" stroke="#000" stroke-width="1"/><line id="line16" x1="158.481" x2="158.481" y1="53.644" y2="57.274" fill="none" stroke="#000" stroke-width="1"/><line id="line18" x1="156.888" x2="156.888" y1="35.54" y2="31.909" fill="none" stroke="#000" stroke-width="1"/><line id="line20" x1="162.989" x2="162.989" y1="53.644" y2="57.274" fill="none" stroke="#000" stroke-width="1"/><line id="line22" x1="159.802" x2="159.802" y1="35.54" y2="31.909" fill="none" stroke="#000" stroke-width="1"/><line id="line24" x1="162.717" x2="162.717" y1="35.54" y2="30.168" fill="none" stroke="#000" stroke-width="1"/><line id="line26" x1="167.499" x2="167.499" y1="53.644" y2="57.274" fill="none" stroke="#000" stroke-width="1"/><line id="line28" x1="172.006" x2="172.006" y1="53.644" y2="59.043" fill="none" stroke="#000" stroke-width="1"/><line id="line30" x1="165.631" x2="165.631" y1="35.54" y2="31.909" fill="none" stroke="#000" stroke-width="1"/><line id="line32" x1="176.516" x2="176.516" y1="53.644" y2="57.274" fill="none" stroke="#000" stroke-width="1"/><line id="line34" x1="168.547" x2="168.547" y1="35.54" y2="31.909" fill="none" stroke="#000" stroke-width="1"/><line id="line36" x1="171.461" x2="171.461" y1="35.54" y2="23.436" fill="none" stroke="#000" stroke-width="1"/><line id="line38" x1="181.025" x2="181.025" y1="53.644" y2="57.274" fill="none" stroke="#000" stroke-width="1"/><line id="line42" x1="174.374" x2="174.374" y1="35.54" y2="31.909" fill="none" stroke="#000" stroke-width="1"/><line id="line46" x1="177.289" x2="177.289" y1="35.54" y2="31.909" fill="none" stroke="#000" stroke-width="1"/><line id="line48" x1="180.203" x2="180.203" y1="35.54" y2="30.168" fill="none" stroke="#000" stroke-width="1"/></g><rect width="24.625" height="9.5" x="2.674" y="8.122" fill="none"/><text font-family="'Droid Sans'" font-size="9" transform="matrix(1 0 0 1 2.6743 14.9619)">cm</text><rect width="24.625" height="9.5" x="2.674" y="16.75" fill="none"/><text font-family="'Droid Sans'" font-size="9" transform="matrix(1 0 0 1 2.6743 23.5898)">in</text></svg>