<svg xmlns="http://www.w3.org/2000/svg" xmlns:xlink="http://www.w3.org/1999/xlink" id="Ebene_1" width="32.055" height="32.055" x="0" y="0" enable-background="new 0 0 32.055 32.055" version="1.1" viewBox="0 0 32.055 32.055" xml:space="preserve"><desc>Hole SVG</desc><path fill="#FFF" stroke="#111" stroke-width="1.944" d="M0,0v32.055h32.055V0H0z M19.299,16.04	c0,1.806-1.462,3.271-3.271,3.271c-1.806,0-3.271-1.463-3.271-3.271c0-1.808,1.464-3.273,3.271-3.273	C17.837,12.767,19.299,14.233,19.299,16.04z"/><g><polyline fill="none" stroke="#FF9F3F" stroke-width="3" points="16.027 12.07 16.027 7.924 18.952 4.999 32.055 4.999"/><polyline fill="none" stroke="#EDD749" stroke-width="3" points="16.027 19.986 16.027 24.133 13.103 27.058 0 27.058"/><path id="path3157_2_" fill="none" stroke="#FF9F3F" stroke-width="2.121" d="M19.299,16.04c0,1.806-1.462,3.271-3.271,3.271 c-1.806,0-3.271-1.463-3.271-3.271c0-1.808,1.464-3.273,3.271-3.273C17.837,12.767,19.299,14.233,19.299,16.04z"/></g></svg>